<svg width="22" height="24" viewBox="0 0 22 24" fill="none" xmlns="http://www.w3.org/2000/svg">
<path d="M21.5 8.79932V17.7524C21.4999 21.4145 19.1949 23.6664 15.5068 23.6665H6.48145C2.82802 23.6663 0.500001 21.3677 0.5 17.6812V8.79932H21.5ZM15.7139 17.1216C15.1838 17.1334 14.757 17.5762 14.7686 18.1128C14.7688 18.6493 15.1955 19.0923 15.7256 19.104C16.2672 19.104 16.7049 18.6609 16.7051 18.1128C16.7051 17.5656 16.2673 17.1216 15.7256 17.1216H15.7139ZM6.22852 17.1089C5.69833 17.1334 5.2832 17.5761 5.2832 18.1128C5.3063 18.6494 5.74428 19.0709 6.27441 19.0464C6.79307 19.0242 7.20762 18.5801 7.18457 18.0435C7.17282 17.5187 6.74696 17.109 6.22852 17.1089ZM10.9766 17.1089C10.4466 17.1336 10.0322 17.5763 10.0322 18.1128C10.0553 18.6494 10.4933 19.0709 11.0234 19.0464C11.5419 19.024 11.9566 18.58 11.9336 18.0435C11.9219 17.5187 11.4951 17.1089 10.9766 17.1089ZM6.24023 12.8745C5.71005 12.899 5.29492 13.3427 5.29492 13.8794C5.31817 14.4147 5.75608 14.8355 6.28613 14.811C6.80461 14.7888 7.2192 14.3457 7.19629 13.8081C7.18477 13.2844 6.7587 12.8747 6.24023 12.8745ZM10.9766 12.8745C10.4466 12.8992 10.0322 13.3429 10.0322 13.8794C10.0555 14.4147 10.4934 14.8355 11.0234 14.811C11.5418 14.7887 11.9565 14.3457 11.9336 13.8081C11.9221 13.2843 11.4952 12.8745 10.9766 12.8745ZM15.7256 12.8872C15.1955 12.8989 14.7805 13.3302 14.7803 13.8667V13.8784C14.7918 14.4138 15.2298 14.8225 15.7598 14.811C16.2783 14.8005 16.6939 14.3573 16.6826 13.8208C16.6596 13.3063 16.2442 12.8872 15.7256 12.8872Z" fill="#5F86FF"/>
<path opacity="0.4" d="M0.503906 8.79921C0.51889 8.11438 0.576519 6.75521 0.684861 6.31771C1.2381 3.85721 3.1168 2.29388 5.80231 2.07104H16.1986C18.861 2.30554 20.7628 3.87938 21.316 6.31771C21.4232 6.74355 21.4809 8.11321 21.4958 8.79921H0.503906Z" fill="#5F86FF"/>
<path d="M6.689 5.68801C7.19613 5.68801 7.57649 5.30417 7.57649 4.78967V1.23251C7.57649 0.718008 7.19613 0.333008 6.689 0.333008C6.18186 0.333008 5.80151 0.718008 5.80151 1.23251V4.78967C5.80151 5.30417 6.18186 5.68801 6.689 5.68801Z" fill="#5F86FF"/>
<path d="M15.3108 5.68801C15.8064 5.68801 16.1983 5.30417 16.1983 4.78967V1.23251C16.1983 0.718008 15.8064 0.333008 15.3108 0.333008C14.8037 0.333008 14.4233 0.718008 14.4233 1.23251V4.78967C14.4233 5.30417 14.8037 5.68801 15.3108 5.68801Z" fill="#5F86FF"/>
</svg>
