<svg width="21" height="18" viewBox="0 0 21 18" fill="none" xmlns="http://www.w3.org/2000/svg">
<path fill-rule="evenodd" clip-rule="evenodd" d="M15.69 3.2364C15.73 3.30633 15.8 3.35627 15.89 3.35627C18.29 3.35627 20.25 5.3141 20.25 7.71143V13.6448C20.25 16.0422 18.29 18 15.89 18H4.61C2.2 18 0.25 16.0422 0.25 13.6448V7.71143C0.25 5.3141 2.2 3.35627 4.61 3.35627C4.69 3.35627 4.77 3.31632 4.8 3.2364L4.86 3.11654C4.89448 3.04397 4.92987 2.96943 4.96579 2.89376C5.22161 2.35492 5.50463 1.75879 5.68 1.40844C6.14 0.509434 6.92 0.0099889 7.89 0H12.6C13.57 0.0099889 14.36 0.509434 14.82 1.40844C14.9775 1.72308 15.2174 2.2299 15.4487 2.71839C15.4964 2.81921 15.5438 2.91924 15.59 3.01665L15.69 3.2364ZM14.96 7.07214C14.96 7.57159 15.36 7.97114 15.86 7.97114C16.36 7.97114 16.77 7.57159 16.77 7.07214C16.77 6.5727 16.36 6.16315 15.86 6.16315C15.36 6.16315 14.96 6.5727 14.96 7.07214ZM8.52 8.62042C8.99 8.15094 9.6 7.90122 10.25 7.90122C10.9 7.90122 11.51 8.15094 11.97 8.61043C12.43 9.06992 12.68 9.67924 12.68 10.3285C12.67 11.667 11.59 12.7558 10.25 12.7558C9.6 12.7558 8.99 12.5061 8.53 12.0466C8.07 11.5871 7.82 10.9778 7.82 10.3285V10.3185C7.81 9.68923 8.06 9.07991 8.52 8.62042ZM13.02 13.1054C12.31 13.8147 11.33 14.2542 10.25 14.2542C9.2 14.2542 8.22 13.8446 7.47 13.1054C6.73 12.3563 6.32 11.3774 6.32 10.3285C6.31 9.28968 6.72 8.31077 7.46 7.5616C8.21 6.81243 9.2 6.40289 10.25 6.40289C11.3 6.40289 12.29 6.81243 13.03 7.55161C13.77 8.30078 14.18 9.28968 14.18 10.3285C14.17 11.4173 13.73 12.3962 13.02 13.1054Z" fill="#7E83A1"/>
</svg>
