<svg width="21" height="21" viewBox="0 0 21 21" fill="none" xmlns="http://www.w3.org/2000/svg">
<path fill-rule="evenodd" clip-rule="evenodd" d="M19.1242 6.12361L18.5017 5.04352C17.9752 4.1296 16.8082 3.81432 15.893 4.33872V4.33872C15.4574 4.59534 14.9376 4.66815 14.4482 4.54109C13.9588 4.41402 13.5401 4.09752 13.2843 3.66137C13.1198 3.38415 13.0314 3.06839 13.0281 2.74604V2.74604C13.0429 2.22922 12.8479 1.7284 12.4875 1.35767C12.1271 0.986937 11.632 0.777863 11.115 0.778076H9.861C9.35447 0.77807 8.86882 0.979914 8.5115 1.33895C8.15419 1.69798 7.95468 2.18459 7.95711 2.69112V2.69112C7.9421 3.73693 7.08998 4.57681 6.04407 4.5767C5.72172 4.57336 5.40596 4.48494 5.12874 4.32041V4.32041C4.21357 3.79601 3.04662 4.11129 2.52004 5.02522L1.85185 6.12361C1.32592 7.03639 1.6369 8.20261 2.5475 8.73231V8.73231C3.13941 9.07404 3.50404 9.70559 3.50404 10.3891C3.50404 11.0725 3.13941 11.7041 2.5475 12.0458V12.0458C1.63806 12.5719 1.32673 13.7353 1.85185 14.6454V14.6454L2.48343 15.7346C2.73015 16.1798 3.14411 16.5083 3.6337 16.6474C4.12329 16.7866 4.64814 16.7249 5.09213 16.476V16.476C5.52858 16.2213 6.04869 16.1516 6.53684 16.2822C7.025 16.4128 7.44074 16.733 7.69167 17.1717C7.8562 17.4489 7.94461 17.7646 7.94796 18.087V18.087C7.94796 19.1435 8.80446 20 9.861 20H11.115C12.168 20.0001 13.023 19.1491 13.0281 18.0962V18.0962C13.0256 17.588 13.2264 17.1 13.5857 16.7407C13.945 16.3814 14.433 16.1807 14.9411 16.1831C15.2627 16.1917 15.5771 16.2798 15.8564 16.4394V16.4394C16.7692 16.9653 17.9354 16.6544 18.4651 15.7438V15.7438L19.1242 14.6454C19.3793 14.2075 19.4493 13.686 19.3187 13.1964C19.1881 12.7067 18.8678 12.2894 18.4285 12.0367V12.0367C17.9893 11.784 17.6689 11.3666 17.5383 10.8769C17.4077 10.3873 17.4778 9.86582 17.7329 9.42796C17.8987 9.13834 18.1389 8.8982 18.4285 8.73231V8.73231C19.3337 8.20289 19.6439 7.04349 19.1242 6.13277V6.13277V6.12361Z" stroke="black" stroke-width="1.5" stroke-linecap="round" stroke-linejoin="round"/>
<circle cx="10.4926" cy="10.3891" r="2.63616" stroke="black" stroke-width="1.5" stroke-linecap="round" stroke-linejoin="round"/>
</svg>
