<svg width="24" height="24" viewBox="0 0 24 24" fill="none" xmlns="http://www.w3.org/2000/svg">
<path d="M15.6559 8.85547C15.5959 8.89305 14.167 9.68609 14.167 11.4444C14.2343 13.4497 15.9702 14.153 16 14.153C15.9702 14.1905 15.7379 15.1109 15.0498 16.0758C14.5037 16.9069 13.8976 17.7448 12.9772 17.7448C12.1017 17.7448 11.7874 17.1909 10.7772 17.1909C9.69231 17.1909 9.38534 17.7448 8.55473 17.7448C7.63432 17.7448 6.9833 16.862 6.40743 16.0387C5.65929 14.9611 5.0234 13.2701 5.00095 11.6465C4.98582 10.7861 5.15077 9.94035 5.56949 9.22198C6.16049 8.21909 7.21559 7.5383 8.36782 7.51585C9.25065 7.48608 10.0364 8.12197 10.5751 8.12197C11.0915 8.12197 12.0568 7.51585 13.149 7.51585C13.6204 7.51634 14.8775 7.65835 15.6559 8.85547ZM10.5005 7.34407C10.3433 6.55835 10.7772 5.77263 11.1813 5.27143C11.6976 4.66531 12.5131 4.25391 13.2163 4.25391C13.2612 5.03962 12.9767 5.81021 12.4682 6.37144C12.0119 6.97756 11.2262 7.43386 10.5005 7.34407Z" fill="white"/>
</svg>
