<svg width="40" height="40" viewBox="0 0 40 40" fill="none" xmlns="http://www.w3.org/2000/svg">
<rect x="0.714286" y="0.714286" width="38.5714" height="38.5714" rx="19.2857" fill="white"/>
<rect x="0.714286" y="0.714286" width="38.5714" height="38.5714" rx="19.2857" stroke="#D7D7E3" stroke-width="1.42857"/>
<path d="M12.4398 23.6157C13.6213 27.323 17.0054 29.9997 20.9957 29.9997C25.9686 29.9997 30 25.8423 30 20.7139C30 15.5856 25.9686 11.4282 20.9957 11.4282C17.6628 11.4282 14.7529 13.2956 13.196 16.0711M15.9308 17.2318H11.4286V12.5889" stroke="#353744" stroke-width="2.5" stroke-linecap="round" stroke-linejoin="round"/>
<path d="M12.4398 23.6157C13.6213 27.323 17.0054 29.9997 20.9957 29.9997C25.9686 29.9997 30 25.8423 30 20.7139C30 15.5856 25.9686 11.4282 20.9957 11.4282C17.6628 11.4282 14.7529 13.2956 13.196 16.0711M15.9308 17.2318H11.4286V12.5889" stroke="black" stroke-opacity="0.2" stroke-width="2.5" stroke-linecap="round" stroke-linejoin="round"/>
</svg>
