<svg width="117" height="97" viewBox="0 0 117 97" fill="none" xmlns="http://www.w3.org/2000/svg">
<rect x="84.9502" y="17.6631" width="25.4967" height="25.4967" rx="12.7484" transform="rotate(-43.8441 84.9502 17.6631)" fill="#2C60FF"/>
<path fill-rule="evenodd" clip-rule="evenodd" d="M66.418 28.9197C72.5295 24.5268 81.0456 25.9195 85.4385 32.031C89.8314 38.1426 88.4377 46.6586 82.3262 51.0515L23.8672 93.0711C23.4541 93.368 23.0288 93.6372 22.5957 93.8816C20.1991 95.9779 17.0621 97.2488 13.6279 97.2488C6.10154 97.2487 0 91.1473 0 83.6209V41.6883C0.000251734 34.162 6.1017 28.0605 13.6279 28.0603C21.1543 28.0603 27.2556 34.162 27.2559 41.6883V57.0681L66.418 28.9197Z" fill="#326BFF"/>
<path d="M13.666 67.0896L27.294 56.6062L27.294 77.8535L13.666 67.0896Z" fill="white"/>
<path d="M27.2934 79.6666C25.8035 90.096 22.3659 88.0531 16.2868 88.0531C10.2077 88.0531 5.27964 83.3597 5.27964 77.5701C5.27964 71.7805 3.48831 67.087 13.6655 67.0869C21.0042 67.0869 28.3417 72.3284 27.2934 79.6666Z" fill="#326BFF"/>
</svg>
