<svg width="14" height="14" viewBox="0 0 14 14" fill="none" xmlns="http://www.w3.org/2000/svg">
<path d="M12.293 0.292969C12.6835 -0.0975555 13.3165 -0.0975555 13.707 0.292969C14.0974 0.683505 14.0975 1.31656 13.707 1.70703L8.41406 7L13.707 12.293C14.0974 12.6835 14.0975 13.3166 13.707 13.707C13.3166 14.0975 12.6835 14.0974 12.293 13.707L7 8.41406L1.70703 13.707C1.31656 14.0975 0.683505 14.0974 0.292969 13.707C-0.0975555 13.3165 -0.0975555 12.6835 0.292969 12.293L5.58594 7L0.292969 1.70703C-0.0975555 1.31651 -0.0975555 0.683493 0.292969 0.292969C0.683493 -0.0975555 1.31651 -0.0975555 1.70703 0.292969L7 5.58594L12.293 0.292969Z" fill="#7E83A1"/>
</svg>
