<svg width="20" height="20" viewBox="0 0 20 20" fill="none" xmlns="http://www.w3.org/2000/svg">
<g clip-path="url(#clip0_1599_65287)">
<path d="M10 18.3337C14.6024 18.3337 18.3334 14.6027 18.3334 10.0003C18.3334 5.39795 14.6024 1.66699 10 1.66699C5.39765 1.66699 1.66669 5.39795 1.66669 10.0003C1.66669 14.6027 5.39765 18.3337 10 18.3337Z" stroke="#7E83A1" stroke-width="1.66667" stroke-linecap="round" stroke-linejoin="round"/>
<path d="M7.57507 7.49755C7.77099 6.9406 8.1577 6.47097 8.6667 6.17182C9.1757 5.87268 9.77415 5.76333 10.3561 5.86314C10.938 5.96295 11.4658 6.26548 11.846 6.71715C12.2262 7.16882 12.4343 7.74048 12.4334 8.33088C12.4334 9.99755 9.93341 10.8309 9.93341 10.8309" stroke="#7E83A1" stroke-width="1.66667" stroke-linecap="round" stroke-linejoin="round"/>
<path d="M10 14.167H10.009" stroke="#7E83A1" stroke-width="1.66667" stroke-linecap="round" stroke-linejoin="round"/>
</g>
<defs>
<clipPath id="clip0_1599_65287">
<rect width="20" height="20" fill="white"/>
</clipPath>
</defs>
</svg>
