<svg width="117" height="97" viewBox="0 0 117 97" fill="none" xmlns="http://www.w3.org/2000/svg">
<rect x="84.9495" y="17.6638" width="25.4967" height="25.4967" rx="12.7484" transform="rotate(-43.8441 84.9495 17.6638)" fill="white"/>
<path d="M66.417 28.921C72.5285 24.5281 81.0446 25.9208 85.4375 32.0323C89.8304 38.1439 88.4367 46.66 82.3252 51.0529L23.8662 93.0724C23.4531 93.3693 23.0278 93.6385 22.5947 93.8829C20.1981 95.9792 17.0611 97.2501 13.627 97.2501C6.10057 97.25 -0.000976562 91.1486 -0.000976562 83.6222V41.6896C-0.000724829 34.1634 6.10072 28.0618 13.627 28.0616C21.1533 28.0616 27.2546 34.1633 27.2549 41.6896V57.0695L66.417 28.921Z" fill="white"/>
<path d="M13.6648 67.0902L27.2928 56.6068L27.2928 77.8541L13.6648 67.0902Z" fill="#326BFF"/>
<path d="M27.2922 79.668C25.8022 90.0975 22.3647 88.0546 16.2856 88.0546C10.2065 88.0546 5.27842 83.3612 5.27842 77.5716C5.27842 71.7819 3.48709 67.0884 13.6643 67.0884C21.0029 67.0883 28.3405 72.3299 27.2922 79.668Z" fill="white"/>
</svg>
