<svg width="36" height="29" viewBox="0 0 36 29" fill="none" xmlns="http://www.w3.org/2000/svg">
<rect x="24.7951" y="5.46167" width="7.442" height="7.442" rx="3.721" transform="rotate(-43.8441 24.7951 5.46167)" fill="#2C60FF"/>
<path d="M19.3857 8.7478C21.1696 7.4656 23.6553 7.87218 24.9375 9.65601C26.2197 11.4398 25.8131 13.9256 24.0293 15.2078L6.96582 27.4724C6.84598 27.5585 6.72228 27.6358 6.59668 27.7068C5.89682 28.3201 4.98121 28.6931 3.97754 28.6931C1.78073 28.6931 4.13111e-05 26.9124 0 24.7156V12.4763C6.79705e-06 10.2795 1.7807 8.49878 3.97754 8.49878C6.17436 8.4988 7.95507 10.2795 7.95508 12.4763V16.9636L19.3857 8.7478Z" fill="#326BFF"/>
<path d="M3.98849 19.8892L7.96622 16.8293L7.96622 23.031L3.98849 19.8892Z" fill="#EDEDF4"/>
<path d="M7.96604 23.5612C7.53116 26.6053 6.52781 26.009 4.75345 26.009C2.97908 26.009 1.54066 24.6391 1.54066 22.9492C1.54066 21.2594 1.01781 19.8894 3.98833 19.8894C6.13034 19.8894 8.27202 21.4193 7.96604 23.5612Z" fill="#326BFF"/>
</svg>
