<svg width="33" height="29" viewBox="0 0 33 29" fill="none" xmlns="http://www.w3.org/2000/svg">
<path d="M26.1865 15.7783C26.6132 15.7763 26.9606 16.1386 26.9629 16.5879L26.9854 21.4727L31.623 21.4492C32.0499 21.4471 32.3983 21.8093 32.4004 22.2588C32.4024 22.7083 32.0577 23.0749 31.6309 23.0771L26.9932 23.1006L27.0156 27.9844C27.0175 28.4336 26.6736 28.8003 26.2471 28.8027C25.8203 28.8049 25.472 28.4415 25.4697 27.9922L25.4473 23.1084L20.8096 23.1328C20.3829 23.1348 20.0353 22.7717 20.0332 22.3223C20.0312 21.8728 20.3759 21.5071 20.8027 21.5049L22.9922 21.4932L22.9932 21.4922L24.7344 21.4834H24.7334L25.4404 21.4805L25.417 16.5957C25.4152 16.1464 25.7598 15.7805 26.1865 15.7783ZM19.5371 0C22.3926 -0.0146588 24.7192 2.41179 24.7334 5.41895L24.7744 14.4502C24.1295 14.9237 23.7083 15.7119 23.7119 16.6035L23.7266 19.6924L23.0928 19.6953L23.0273 5.42773C23.0178 3.41271 21.4593 1.78709 19.5459 1.79688L5.15332 1.87109C3.24001 1.88102 1.69606 3.52222 1.70508 5.53711L1.77539 20.6943C1.78474 22.7096 3.34424 24.335 5.25781 24.3252L19.1455 24.2529C19.5881 24.6747 20.1744 24.932 20.8184 24.9287L22.7852 24.918C21.9191 25.6206 20.8359 26.0418 19.6582 26.0479L5.26562 26.1221C2.41013 26.1366 0.0842605 23.7104 0.0703125 20.7031L0 5.5459C-0.0136251 2.53884 2.29006 0.0889075 5.14551 0.0742188L19.5371 0ZM15.5947 11.3486C16.1209 10.8268 16.9246 10.7959 17.4834 11.2549L17.5918 11.3535L19.8223 13.5869C20.2271 13.9923 20.4581 14.5543 20.4609 15.1426L20.4814 19.7324C19.5254 19.8644 18.7428 20.5681 18.4512 21.5068L5.84473 21.5713C5.04263 21.5754 4.3889 20.8945 4.38477 20.0498L4.37305 17.418C4.37107 16.9752 4.4985 16.5429 4.73535 16.1807L4.81152 16.0742C4.8887 15.9762 4.96684 15.9015 5.02441 15.8496L7.61133 13.5166L7.62207 13.5059L7.63281 13.4932L7.63477 13.4922C8.1657 12.9218 9.01891 12.8836 9.59277 13.3809L9.7041 13.4883L9.7168 13.501C9.72169 13.5062 9.72466 13.5106 9.72754 13.5137L11.6719 15.2695L15.5918 11.3506L15.5947 11.3486ZM12.6738 16.7451L12.6709 16.7471C12.0924 17.3212 11.1919 17.295 10.6426 16.71L10.6299 16.6973L10.6182 16.6846L10.6172 16.6836L8.67188 14.9258L6.13379 17.2139C6.13278 17.2148 6.13089 17.216 6.12988 17.2168C6.09645 17.2743 6.07788 17.3411 6.07812 17.4092L6.08984 19.7744L18.7764 19.709L18.7549 15.1514C18.7543 15.0523 18.7155 14.957 18.6475 14.8887L16.5898 12.8301L12.6738 16.7451ZM17.958 5.31348C18.4288 5.3111 18.8128 5.71127 18.8154 6.20703L18.8164 6.57422C18.8185 7.0701 18.4387 7.47411 17.9678 7.47656L17.5566 7.47852C17.0857 7.48088 16.7016 7.08089 16.6992 6.58496L16.6982 6.21777C16.6963 5.72208 17.0761 5.31791 17.5469 5.31543L17.958 5.31348Z" fill="#A9AABE"/>
</svg>
