<svg width="20" height="21" viewBox="0 0 20 21" fill="none" xmlns="http://www.w3.org/2000/svg">
<rect x="1.66666" y="7.67065" width="2.5" height="4.16667" rx="0.833333" fill="#5F86FF"/>
<path d="M6.66666 12.6707H9.99999V16.8373C9.99999 17.2976 9.62689 17.6707 9.16666 17.6707H7.49999C7.03975 17.6707 6.66666 17.2976 6.66666 16.8373V12.6707Z" fill="#5F86FF"/>
<path d="M9.66663 5.64745H8.2394C6.8138 5.64745 6.10101 5.64745 5.5565 5.9155C5.07754 6.15129 4.68814 6.52753 4.44409 6.99029C4.16666 7.51638 4.16666 8.20507 4.16666 9.58245V10.5662C4.16666 11.3301 4.16666 11.7121 4.29583 12.0134C4.46807 12.4152 4.79842 12.7344 5.21423 12.9008C5.52608 13.0256 5.92143 13.0256 6.71212 13.0256H9.03027H9.66664C11.1654 13.0256 12.9989 13.8018 14.4133 14.5468C15.2385 14.9814 15.6511 15.1987 15.9213 15.1668C16.1719 15.1371 16.3614 15.0284 16.5083 14.83C16.6667 14.6161 16.6667 14.188 16.6667 13.3319V5.34108C16.6667 4.48498 16.6667 4.05693 16.5083 3.843C16.3614 3.64462 16.1719 3.53591 15.9213 3.50626C15.6511 3.47428 15.2385 3.69159 14.4133 4.12621C12.9989 4.8712 11.1654 5.64745 9.66663 5.64745Z" fill="#94AEFF" stroke="#94AEFF" stroke-width="1.66667" stroke-linecap="round" stroke-linejoin="round"/>
</svg>
