<svg width="24" height="24" viewBox="0 0 24 24" fill="none" xmlns="http://www.w3.org/2000/svg">
<rect x="0.083374" y="0.333252" width="23.3333" height="23.3333" rx="11.6667" fill="#D4DFFF"/>
<path d="M10.7685 5.60799C11.2145 4.79766 12.2857 4.79766 12.7317 5.60799L14.2147 8.30223C14.3835 8.60881 14.6633 8.82196 14.9841 8.88824L17.8146 9.47306C18.7165 9.65941 19.0634 10.8749 18.4193 11.5923L16.5563 13.6676C16.3104 13.9415 16.1921 14.3236 16.2352 14.7051L16.5603 17.5856C16.669 18.5486 15.7851 19.2784 14.9718 18.8972L12.2006 17.5984C11.9129 17.4636 11.5874 17.4636 11.2997 17.5984L8.52844 18.8972C7.7151 19.2784 6.83126 18.5486 6.93994 17.5856L7.26504 14.7051C7.3081 14.3236 7.18984 13.9415 6.94398 13.6676L5.08091 11.5923C4.43687 10.8749 4.78372 9.65942 5.68566 9.47306L8.51614 8.88824C8.83694 8.82196 9.11678 8.60881 9.28553 8.30223L10.7685 5.60799Z" fill="#5F86FF"/>
</svg>
