<svg width="29" height="28" viewBox="0 0 29 28" fill="none" xmlns="http://www.w3.org/2000/svg">
<rect x="5.40674" y="11.0986" width="3.05884" height="5.09806" rx="1.01961" fill="#94AEFF"/>
<path d="M11.5244 17.2168H15.6029V22.3149C15.6029 22.878 15.1464 23.3345 14.5833 23.3345H12.544C11.9809 23.3345 11.5244 22.878 11.5244 22.3149V17.2168Z" fill="#94AEFF"/>
<path d="M15.195 8.62359H13.4487C11.7045 8.62359 10.8323 8.62359 10.1661 8.95157C9.58008 9.24007 9.10362 9.7004 8.80503 10.2666C8.46558 10.9103 8.46558 11.7529 8.46558 13.4382V14.6419C8.46558 15.5766 8.46558 16.0439 8.62363 16.4126C8.83436 16.9041 9.23856 17.2947 9.74732 17.4983C10.1289 17.651 10.6126 17.651 11.58 17.651H14.4164H15.195C17.0288 17.651 19.2721 18.6008 21.0027 19.5123L21.0027 19.5123C22.0124 20.044 22.5172 20.3099 22.8478 20.2708C23.1544 20.2345 23.3862 20.1015 23.566 19.8588C23.7598 19.597 23.7598 19.0733 23.7598 18.0258V8.24874C23.7598 7.20127 23.7598 6.67754 23.566 6.41579C23.3862 6.17306 23.1544 6.04006 22.8478 6.00377C22.5172 5.96465 22.0124 6.23053 21.0027 6.7623C19.2721 7.67383 17.0288 8.62359 15.195 8.62359Z" fill="#5F86FF" stroke="#5F86FF" stroke-width="2.03923" stroke-linecap="round" stroke-linejoin="round"/>
</svg>
