<svg width="24" height="24" viewBox="0 0 24 24" fill="none" xmlns="http://www.w3.org/2000/svg">
<path d="M18.6563 12.9112C18.9407 12.9098 19.1733 13.1517 19.1748 13.4512L19.1895 16.7071L22.2813 16.6914C22.5658 16.69 22.7974 16.9318 22.7989 17.2315C22.8002 17.5312 22.5707 17.7749 22.2862 17.7764L19.1944 17.793L19.21 21.0489C19.2112 21.3482 18.9816 21.5921 18.6973 21.5938C18.4128 21.5953 18.1803 21.3533 18.1788 21.0538L18.1641 17.7979L17.3477 17.8018L17.3467 17.8047L15.9561 17.8125C15.9572 17.8114 15.958 17.8098 15.959 17.8086L15.0723 17.8135C14.7878 17.8149 14.5561 17.5731 14.5547 17.2735C14.5536 16.974 14.783 16.73 15.0674 16.7286L18.1592 16.7129L18.1436 13.4561C18.1424 13.1567 18.372 12.9129 18.6563 12.9112ZM14.2237 2.39848C16.1273 2.3888 17.6782 4.00595 17.6875 6.01079L17.7149 12.0293C17.2851 12.3451 17.0044 12.8706 17.0069 13.4649L17.0166 15.5245L16.5948 15.5264L16.5508 6.01664C16.5446 4.67322 15.5052 3.58929 14.2295 3.59575L4.63481 3.64457C3.35909 3.65114 2.32975 4.7464 2.33598 6.08989L2.38285 16.1944C2.38941 17.5376 3.42864 18.6218 4.70414 18.6153L13.9649 18.5664C14.2597 18.8462 14.65 19.0169 15.0782 19.0147L16.3907 19.0079C15.8131 19.4771 15.0906 19.7586 14.3047 19.7627L4.71 19.8125C2.80645 19.8223 1.25577 18.2048 1.24614 16.2002L1.19926 6.09575C1.18996 4.09093 2.72529 2.45723 4.62895 2.44731L14.2237 2.39848ZM11.5957 9.96391C11.9465 9.61582 12.4819 9.59525 12.8545 9.90141L12.9268 9.96684L14.4141 11.4561C14.6837 11.7264 14.8381 12.1012 14.8399 12.4932L14.8536 15.5498C14.2153 15.6378 13.6929 16.1084 13.4991 16.7354L5.09575 16.7793C4.56105 16.7821 4.12493 16.3268 4.12211 15.7637L4.1143 14.0098C4.11294 13.7148 4.19781 13.427 4.35551 13.1856L4.40629 13.1143C4.4578 13.0488 4.51041 12.9986 4.54887 12.9639L6.27543 11.4073C6.27051 11.4117 6.26822 11.4154 6.2686 11.4151C6.26905 11.4146 6.27058 11.4132 6.2725 11.4112C6.27452 11.409 6.2769 11.4061 6.28032 11.4024V11.4014L6.28715 11.3936L6.2891 11.3926C6.6431 11.0123 7.21218 10.9868 7.59477 11.3184L7.66899 11.3897L7.68461 11.4073L8.98051 12.5772L11.5938 9.96489L11.5957 9.96391ZM9.64848 13.5616L9.64653 13.5625C9.26095 13.9452 8.66021 13.9278 8.29399 13.5381L8.2852 13.5293C8.28222 13.5261 8.28013 13.5235 8.27836 13.5215L8.27739 13.5196L6.98051 12.3487L5.28813 13.8741L5.28617 13.876C5.26392 13.9144 5.25082 13.9586 5.25102 14.0039L5.25883 15.5801L13.7168 15.5372L13.7022 12.4991C13.7019 12.433 13.6762 12.3689 13.6309 12.3233L12.2588 10.9512L9.64848 13.5616ZM13.1709 5.94047C13.4849 5.93897 13.7407 6.20554 13.7422 6.53618L13.7432 6.78032C13.7445 7.11077 13.4916 7.38015 13.1778 7.38188L12.9034 7.38383C12.5897 7.38535 12.334 7.11841 12.3321 6.78813L12.3311 6.54301C12.3297 6.21255 12.5827 5.94325 12.8965 5.94145L13.1709 5.94047Z" fill="#A9AABE"/>
</svg>
