<svg width="20" height="20" viewBox="0 0 20 20" fill="none" xmlns="http://www.w3.org/2000/svg">
<rect x="0.227273" y="0.227273" width="19.5455" height="19.5455" rx="9.77273" fill="white"/>
<rect x="0.227273" y="0.227273" width="19.5455" height="19.5455" rx="9.77273" stroke="#BFBFBF" stroke-width="0.454545"/>
<path d="M11.6424 7.53582C11.7238 7.53582 11.8625 7.54877 12.0585 7.57466C12.2546 7.60056 12.4691 7.67454 12.7022 7.79661C12.9389 7.91498 13.1535 8.11288 13.3458 8.39031C13.3347 8.40141 13.2811 8.4421 13.1849 8.51238C13.0887 8.57897 12.9815 8.67884 12.8631 8.81201C12.7447 8.94148 12.6412 9.10794 12.5524 9.31139C12.4636 9.51114 12.4192 9.74973 12.4192 10.0272C12.4192 10.3453 12.4747 10.6153 12.5857 10.8373C12.7003 11.0592 12.8317 11.2386 12.9796 11.3755C13.1313 11.5087 13.2645 11.6067 13.3791 11.6696C13.4975 11.7325 13.5604 11.7657 13.5678 11.7694C13.5641 11.7842 13.516 11.9156 13.4235 12.1634C13.3347 12.4112 13.1868 12.6868 12.9796 12.9901C12.7984 13.2528 12.6023 13.4951 12.3915 13.717C12.1843 13.939 11.9346 14.0499 11.6424 14.0499C11.4463 14.0499 11.2854 14.0222 11.1597 13.9667C11.0339 13.9075 10.9044 13.8502 10.7713 13.7947C10.6381 13.7355 10.4587 13.7059 10.233 13.7059C10.0148 13.7059 9.83169 13.7355 9.68373 13.7947C9.53946 13.8539 9.40075 13.9131 9.26758 13.9723C9.13811 14.0314 8.9846 14.061 8.80704 14.061C8.53701 14.061 8.30026 13.9538 8.09681 13.7392C7.89336 13.5247 7.68436 13.2676 7.46982 12.968C7.22198 12.6128 7.00928 12.18 6.83172 11.6696C6.65786 11.1554 6.57093 10.6375 6.57093 10.1159C6.57093 9.55738 6.67636 9.08944 6.88721 8.71214C7.09806 8.33113 7.36809 8.04445 7.69731 7.85209C8.03023 7.65604 8.37425 7.55802 8.72936 7.55802C8.91801 7.55802 9.09557 7.58946 9.26203 7.65234C9.42849 7.71153 9.58385 7.77256 9.72812 7.83545C9.87608 7.89833 10.0092 7.92978 10.1276 7.92978C10.2423 7.92978 10.3755 7.89648 10.5271 7.8299C10.6788 7.76332 10.8489 7.69858 11.0376 7.6357C11.2263 7.56911 11.4279 7.53582 11.6424 7.53582ZM11.3372 6.83114C11.193 7.005 11.0117 7.15112 10.7935 7.26949C10.5752 7.38416 10.3681 7.44149 10.172 7.44149C10.1313 7.44149 10.0925 7.4378 10.0555 7.4304C10.0518 7.4193 10.0481 7.39896 10.0444 7.36936C10.0407 7.33977 10.0388 7.30833 10.0388 7.27504C10.0388 7.05309 10.0869 6.83854 10.1831 6.63139C10.2793 6.42054 10.3884 6.24669 10.5105 6.10982C10.6658 5.92486 10.8619 5.77135 11.0986 5.64928C11.3354 5.52721 11.561 5.46248 11.7756 5.45508C11.7867 5.50317 11.7922 5.5605 11.7922 5.62709C11.7922 5.84903 11.7497 6.06543 11.6646 6.27628C11.5795 6.48343 11.4704 6.66838 11.3372 6.83114Z" fill="black"/>
</svg>
