<svg width="16" height="16" viewBox="0 0 16 16" fill="none" xmlns="http://www.w3.org/2000/svg">
<path d="M14.8262 8.02832C15.106 8.02832 15.3338 8.25134 15.334 8.52637C15.334 8.80094 15.1062 9.02344 14.8262 9.02344H14.1182V11.3965C14.1182 12.8334 12.9269 14.001 11.4629 14.001H10.4014C10.1207 14.001 9.89258 13.7782 9.89258 13.5029C9.89262 13.2284 10.1207 13.0059 10.4014 13.0059H11.4629C12.3676 13.0059 13.1035 12.2843 13.1035 11.3965V9.02344H11.3545V9.68457C11.3612 10.5115 10.685 11.1874 9.8418 11.1953H6.15918C5.31652 11.1875 4.63983 10.5115 4.64648 9.68457V9.02344H2.89746V11.3994C2.89753 12.2837 3.63141 13.0034 4.5332 13.0049L5.61914 13.0059C5.89901 13.006 6.12593 13.2285 6.12598 13.5029C6.12531 13.7782 5.89883 14.001 5.61816 14.001H4.53223C3.07161 13.9997 1.8819 12.8323 1.88184 11.3994V9.02344H1.1748C0.894853 9.02338 0.666992 8.8009 0.666992 8.52637C0.667226 8.25138 0.894997 8.02838 1.1748 8.02832H14.8262ZM9.8418 4.49512C10.2451 4.49512 10.633 4.65346 10.915 4.93652C11.199 5.22219 11.3561 5.60648 11.3555 6.00586V6.83594C11.3521 6.93329 11.2721 7.01203 11.1729 7.01465H4.82617C4.72776 7.01115 4.64855 6.93248 4.64648 6.83594V6.00586C4.63915 5.17892 5.31657 4.50368 6.15918 4.49512H9.8418ZM5.61914 2C5.89892 2.00022 6.12592 2.223 6.12598 2.49805C6.12598 2.77248 5.89962 2.99588 5.61914 2.99609H4.5332C3.63197 2.9974 2.8986 3.7172 2.89844 4.60156V5.8418C2.89818 6.11616 2.66949 6.33984 2.38965 6.33984C2.11 6.33962 1.88307 6.11602 1.88281 5.8418V4.60156C1.88298 3.16871 3.07166 2.00228 4.53223 2.00098L5.61816 2H5.61914ZM11.4629 2C12.9273 2.00013 14.118 3.16748 14.1182 4.60352V5.8418C14.1179 6.11616 13.8909 6.33984 13.6104 6.33984C13.3306 6.33969 13.1038 6.11606 13.1035 5.8418V4.60352C13.1033 3.71662 12.3673 2.99525 11.4629 2.99512H10.4004C10.1205 2.99498 9.89355 2.77253 9.89355 2.49805C9.89361 2.22295 10.1205 2.00013 10.4004 2H11.4629Z" fill="#A9AABE"/>
</svg>
