<svg width="24" height="24" viewBox="0 0 24 24" fill="none" xmlns="http://www.w3.org/2000/svg">
<path d="M15.7334 3.5C16.0095 3.50004 16.2334 3.72388 16.2334 4V5.03125H18C19.1046 5.03125 20 5.92668 20 7.03125V18.5C20 19.6046 19.1046 20.5 18 20.5H6C4.89543 20.5 4 19.6046 4 18.5V7.03125C4 5.92668 4.89543 5.03125 6 5.03125H7.7666V4C7.7666 3.72388 7.99049 3.50004 8.2666 3.5C8.54274 3.5 8.7666 3.72386 8.7666 4V5.03125H15.2334V4C15.2334 3.72386 15.4573 3.5 15.7334 3.5ZM5 18.5C5 19.0523 5.44772 19.5 6 19.5H18C18.5523 19.5 19 19.0523 19 18.5V11.2188H5V18.5ZM6 6.03125C5.95123 6.03125 5.90335 6.03525 5.85645 6.04199C5.80912 6.0488 5.76271 6.0581 5.71777 6.07129C5.48797 6.13872 5.2928 6.28689 5.16406 6.48242C5.13691 6.5237 5.1127 6.56707 5.0918 6.6123C5.08607 6.6247 5.07945 6.63675 5.07422 6.64941C5.03813 6.73683 5.01484 6.83089 5.00488 6.92871L5 7.03125V10.2188H19V7.03125C19 6.47897 18.5523 6.03125 18 6.03125H16.2334V7.09375C16.2334 7.36987 16.0095 7.59372 15.7334 7.59375C15.4573 7.59375 15.2334 7.36989 15.2334 7.09375V6.03125H8.7666V7.09375C8.7666 7.36989 8.54274 7.59375 8.2666 7.59375C7.99049 7.59371 7.7666 7.36987 7.7666 7.09375V6.03125H6Z" fill="#7E83A1"/>
</svg>
