<svg width="16" height="16" viewBox="0 0 16 16" fill="none" xmlns="http://www.w3.org/2000/svg">
<path d="M8.83496 1.3374C9.00651 1.33748 9.13867 1.47742 9.13867 1.64404V3.79053C9.13874 5.01037 10.135 6.01026 11.3428 6.01709C11.8442 6.01709 12.2404 6.02392 12.5439 6.02393C12.7485 6.02393 13.0854 6.0171 13.3691 6.01709C13.5341 6.01709 13.6659 6.15031 13.666 6.31689V11.6772C13.6659 13.3304 12.3399 14.6702 10.7031 14.6704H5.44824C3.73239 14.6702 2.3332 13.2638 2.33301 11.5308V4.34326C2.33327 2.69015 3.66714 1.3374 5.31055 1.3374H8.83496ZM5.9502 9.93604C5.67967 9.93609 5.45517 10.156 5.45508 10.4292C5.45508 10.7025 5.67961 10.9291 5.9502 10.9292H9.54102C9.81164 10.9292 10.0361 10.7025 10.0361 10.4292C10.036 10.1559 9.81159 9.93604 9.54102 9.93604H5.9502ZM5.9502 6.60303C5.67961 6.60308 5.45508 6.82973 5.45508 7.10303C5.45526 7.37618 5.67972 7.59614 5.9502 7.59619H8.18164C8.45201 7.59601 8.67658 7.3761 8.67676 7.10303C8.67676 6.8298 8.45212 6.60321 8.18164 6.60303H5.9502ZM10.1006 1.94092C10.1006 1.65358 10.4452 1.51093 10.6426 1.71826C11.3561 2.46755 12.6028 3.77727 13.2998 4.50928C13.4924 4.71117 13.3518 5.04634 13.0742 5.04736C12.5317 5.04936 11.8917 5.04715 11.4316 5.04248C10.7016 5.04248 10.1006 4.43509 10.1006 3.69775V1.94092Z" fill="#326BFF"/>
</svg>
