<svg width="121" height="20" viewBox="0 0 121 20" fill="none" xmlns="http://www.w3.org/2000/svg">
<rect width="5.21059" height="5.17227" rx="2.58613" transform="matrix(1 0 0.00424564 0.999991 18.7578 0.543945)" fill="#326BFF"/>
<path d="M13.4775 5.41504C14.7235 4.50812 16.4567 4.79114 17.3486 6.04785C18.2404 7.3049 17.953 9.05959 16.707 9.9668L4.85547 18.5967C4.76942 18.6593 4.6801 18.7152 4.58984 18.7666C4.10286 19.1939 3.46636 19.456 2.76758 19.4561C1.23947 19.4561 0.000312127 18.2165 0 16.6885V7.99121C0.000229973 6.46311 1.23942 5.22461 2.76758 5.22461C4.29557 5.2248 5.53395 6.46323 5.53418 7.99121V11.1055L2.77539 13.2559C4.07056 13.2567 5.36516 14.0718 5.54102 15.2764V11.1914C8.13296 9.30419 10.5318 7.55986 13.4775 5.41504Z" fill="#326BFF"/>
<path d="M27 18.1442V4.65991H30.0522V10.4149H30.2317L34.5945 4.65991H38.2212L33.5712 10.6757L38.2931 18.1442H34.6304L31.3449 12.7989L30.0522 14.4565V18.1442H27Z" fill="#326BFF"/>
<path d="M46.9728 4.65991H50.0913V13.2391C50.0913 16.2152 47.8482 18.1442 44.5291 18.1442C41.1917 18.1442 38.9668 16.2152 38.9668 13.2391V4.65991H42.0671V12.9819C42.0671 14.3965 43.0701 15.4069 44.5291 15.4069C45.988 15.4069 46.9728 14.3965 46.9728 12.9819V4.65991Z" fill="#326BFF"/>
<path d="M56.5269 10.1587V12.5184H51.3018V10.1587H56.5269Z" fill="#326BFF"/>
<path d="M66.8274 9.57151C66.6441 8.23034 65.6725 7.37851 64.1876 7.37851C62.2261 7.37851 61.0345 8.84655 61.0345 11.402C61.0345 14.0481 62.2628 15.4256 64.1693 15.4256C65.5992 15.4256 66.5891 14.6644 66.8274 13.3776L69.9806 13.3957C69.7239 15.7337 67.7074 18.1442 64.1143 18.1442C60.5212 18.1442 57.8447 15.7155 57.8447 11.402C57.8447 7.0704 60.5762 4.65991 64.1143 4.65991C67.3041 4.65991 69.6506 6.43606 69.9806 9.57151H66.8274Z" fill="#326BFF"/>
<path d="M71.3281 18.1442V4.65991H74.416V10.0983H79.7018V4.65991H82.7897V18.1442H79.7018V12.6871H74.416V18.1442H71.3281Z" fill="#326BFF"/>
<path d="M84.8135 18.1442V4.65991H93.8972V7.24874H87.8958V10.0983H93.4258V12.6871H87.8958V15.5553H93.9153V18.1442H84.8135Z" fill="#326BFF"/>
<path d="M104.246 9.57151C104.063 8.23034 103.091 7.37851 101.607 7.37851C99.645 7.37851 98.4535 8.84655 98.4535 11.402C98.4535 14.0481 99.6817 15.4256 101.588 15.4256C103.018 15.4256 104.008 14.6644 104.246 13.3776L107.399 13.3957C107.143 15.7337 105.126 18.1442 101.533 18.1442C97.9402 18.1442 95.2637 15.7155 95.2637 11.402C95.2637 7.0704 97.9951 4.65991 101.533 4.65991C104.723 4.65991 107.07 6.43606 107.399 9.57151H104.246Z" fill="#326BFF"/>
<path d="M108.748 18.1442V4.65991H111.846V10.4149H112.028L116.456 4.65991H120.137L115.417 10.6757L120.21 18.1442H116.492L113.158 12.7989L111.846 14.4565V18.1442H108.748Z" fill="#326BFF"/>
</svg>
