<svg width="16" height="16" viewBox="0 0 16 16" fill="none" xmlns="http://www.w3.org/2000/svg">
<path d="M8.47852 1.33545C8.98261 1.33545 9.4393 1.61557 9.69141 2.02881C9.81404 2.22881 9.89544 2.47584 9.875 2.73584C9.8614 2.93581 9.92323 3.13611 10.0322 3.32275C10.3798 3.88916 11.1496 4.10265 11.749 3.78271C12.4235 3.39606 13.2747 3.62955 13.6631 4.28955L14.1201 5.07568C14.5152 5.73567 14.2965 6.58242 13.6152 6.9624C13.0363 7.30248 12.8323 8.05615 13.1797 8.62939C13.2886 8.80922 13.411 8.96285 13.6016 9.05615C13.84 9.18282 14.0248 9.38252 14.1543 9.58252C14.4061 9.99567 14.3856 10.5023 14.1406 10.9487L13.6631 11.7495C13.4109 12.1759 12.9406 12.4429 12.457 12.4429C12.2187 12.4428 11.9532 12.3759 11.7354 12.2427C11.5582 12.1294 11.3537 12.0894 11.1357 12.0894C10.4613 12.0894 9.89554 12.6423 9.875 13.3022C9.875 14.0689 9.24834 14.6694 8.46484 14.6694H7.53809C6.74792 14.6693 6.12109 14.0688 6.12109 13.3022C6.10736 12.6423 5.54161 12.0894 4.86719 12.0894C4.64263 12.0894 4.43872 12.1295 4.26855 12.2427C4.05054 12.376 3.77754 12.4429 3.5459 12.4429C3.05545 12.4429 2.58511 12.176 2.33301 11.7495L1.86328 10.9487C1.61132 10.5154 1.59757 9.99578 1.84961 9.58252C1.95859 9.38257 2.16295 9.18282 2.39453 9.05615C2.5853 8.96282 2.7084 8.80939 2.82422 8.62939C3.16487 8.05606 2.95997 7.3024 2.38086 6.9624C1.70641 6.58239 1.48862 5.73567 1.87695 5.07568L2.33301 4.28955C2.72816 3.62955 3.57358 3.39605 4.25488 3.78271C4.84753 4.10237 5.61743 3.88921 5.96484 3.32275C6.07384 3.1361 6.13471 2.93582 6.12109 2.73584C6.10747 2.47584 6.18305 2.22881 6.3125 2.02881C6.56457 1.61582 7.02054 1.3489 7.51758 1.33545H8.47852ZM8.00879 6.12256C6.93914 6.12256 6.07324 6.96261 6.07324 8.00928C6.07345 9.05577 6.93927 9.88916 8.00879 9.88916C9.07814 9.88897 9.92265 9.05565 9.92285 8.00928C9.92285 6.96273 9.07827 6.12275 8.00879 6.12256Z" fill="#A9AABE"/>
</svg>
