<svg width="16" height="16" viewBox="0 0 16 16" fill="none" xmlns="http://www.w3.org/2000/svg">
<path d="M8.47852 1.33545C8.98257 1.33554 9.43936 1.61556 9.69141 2.02881C9.81404 2.22881 9.89544 2.47584 9.875 2.73584C9.86139 2.93582 9.92225 3.13611 10.0312 3.32275C10.3787 3.88938 11.1495 4.10271 11.749 3.78271C12.4235 3.39625 13.2748 3.62963 13.6631 4.28955L14.1191 5.07568C14.5143 5.73568 14.2965 6.5824 13.6152 6.9624C13.0362 7.30241 12.8322 8.05608 13.1797 8.62939C13.2886 8.80923 13.4109 8.96289 13.6016 9.05615C13.84 9.18281 14.0239 9.38255 14.1533 9.58252C14.4054 9.9958 14.3848 10.5021 14.1396 10.9487L13.6631 11.7495C13.411 12.176 12.9407 12.4429 12.457 12.4429C12.2187 12.4429 11.9533 12.3758 11.7354 12.2427C11.5583 12.1294 11.3536 12.0894 11.1357 12.0894C10.4613 12.0894 9.89555 12.6423 9.875 13.3022C9.875 14.0688 9.24825 14.6693 8.46484 14.6694H7.53809C6.74777 14.6694 6.12109 14.0689 6.12109 13.3022C6.10736 12.6423 5.54161 12.0894 4.86719 12.0894C4.64243 12.0894 4.43786 12.1294 4.26758 12.2427C4.04969 12.3758 3.77739 12.4428 3.5459 12.4429C3.05549 12.4429 2.58514 12.176 2.33301 11.7495L1.86328 10.9487C1.61124 10.5154 1.59754 9.99583 1.84961 9.58252C1.95863 9.38256 2.16293 9.18279 2.39453 9.05615C2.58514 8.96287 2.7075 8.80924 2.82324 8.62939C3.16386 8.05612 2.95983 7.30245 2.38086 6.9624C1.70641 6.58243 1.48774 5.73566 1.87598 5.07568L2.33301 4.28955C2.72815 3.62958 3.57262 3.39612 4.25391 3.78271C4.8465 4.10264 5.61628 3.88912 5.96387 3.32275C6.07286 3.13611 6.1347 2.93582 6.12109 2.73584C6.10747 2.47584 6.18208 2.22881 6.31152 2.02881C6.56361 1.61556 7.0203 1.3488 7.51758 1.33545H8.47852ZM8.00781 6.12256C6.9383 6.12272 6.07324 6.96271 6.07324 8.00928C6.07345 9.05567 6.93843 9.889 8.00781 9.88916C9.07733 9.88916 9.92265 9.05577 9.92285 8.00928C9.92285 6.96261 9.07746 6.12256 8.00781 6.12256Z" fill="#326BFF"/>
</svg>
