<svg width="16" height="16" viewBox="0 0 16 16" fill="none" xmlns="http://www.w3.org/2000/svg">
<path d="M6.23242 9.90625C8.88909 9.90625 11.1315 10.3284 11.1318 11.9609C11.1318 13.5925 8.87496 14.001 6.23242 14.001C3.57578 14.001 1.33327 13.5788 1.33301 11.9463C1.33301 10.3148 3.58998 9.90627 6.23242 9.90625ZM10.3799 8.9209C11.3902 8.90176 12.4767 9.03798 12.8779 9.13379C13.7286 9.29669 14.288 9.62872 14.5195 10.1123C14.7156 10.5083 14.7158 10.9683 14.5195 11.3643C14.1653 12.1127 13.0225 12.353 12.5781 12.415C12.4861 12.4278 12.4121 12.3515 12.4219 12.2607C12.6488 10.1859 10.844 9.20173 10.377 8.97559C10.3576 8.96473 10.3525 8.94963 10.3545 8.93945C10.3559 8.93306 10.365 8.92281 10.3799 8.9209ZM6.23242 2C8.03212 2 9.47453 3.41236 9.47461 5.1748C9.47461 6.93731 8.03217 8.34961 6.23242 8.34961C4.43344 8.34949 2.99023 6.93724 2.99023 5.1748C2.99031 3.41244 4.43349 2.00012 6.23242 2ZM10.5557 2.53125C12.2941 2.53125 13.6585 4.13209 13.1934 5.91504C12.8796 7.11664 11.744 7.91442 10.4785 7.88184C10.3514 7.87927 10.2267 7.86745 10.1055 7.84766C10.0182 7.83224 9.97422 7.73557 10.0244 7.66406C10.507 6.96843 10.7822 6.13085 10.7822 5.2334C10.7822 4.29574 10.4823 3.42241 9.95996 2.70508C9.94306 2.68279 9.93055 2.6492 9.94727 2.62305C9.96031 2.6026 9.98661 2.59105 10.0107 2.58594C10.1868 2.55084 10.3673 2.53126 10.5557 2.53125Z" fill="#326BFF"/>
</svg>
