<svg width="35" height="28" viewBox="0 0 35 28" fill="none" xmlns="http://www.w3.org/2000/svg">
<path d="M16.5 7C16.5 7.55228 16.9477 8 17.5 8C18.0523 8 18.5 7.55228 18.5 7C18.5 6.44772 18.0523 6 17.5 6C16.9477 6 16.5 6.44772 16.5 7Z" fill="#7E83A1" stroke="#7E83A1" stroke-linecap="round" stroke-linejoin="round"/>
<path d="M16.5 14C16.5 14.5523 16.9477 15 17.5 15C18.0523 15 18.5 14.5523 18.5 14C18.5 13.4477 18.0523 13 17.5 13C16.9477 13 16.5 13.4477 16.5 14Z" fill="#7E83A1" stroke="#7E83A1" stroke-linecap="round" stroke-linejoin="round"/>
<path d="M16.5 21C16.5 21.5523 16.9477 22 17.5 22C18.0523 22 18.5 21.5523 18.5 21C18.5 20.4477 18.0523 20 17.5 20C16.9477 20 16.5 20.4477 16.5 21Z" fill="#7E83A1" stroke="#7E83A1" stroke-linecap="round" stroke-linejoin="round"/>
</svg>
