<svg width="16" height="16" viewBox="0 0 16 16" fill="none" xmlns="http://www.w3.org/2000/svg">
<path d="M13.3271 12.6357C13.6983 12.6359 13.9998 12.9414 14 13.3174C14 13.6942 13.6984 13.9998 13.3271 14H9.52051C9.1491 14 8.84668 13.6943 8.84668 13.3174C8.84688 12.9413 9.14923 12.6357 9.52051 12.6357H13.3271ZM8.16113 2.6377C8.76947 1.85683 9.83065 1.78537 10.6865 2.46582L11.6699 3.24707C12.0731 3.56232 12.3425 3.97799 12.4346 4.41504C12.5407 4.89591 12.4267 5.36885 12.1084 5.77734L6.25098 13.3516C5.98222 13.6955 5.58644 13.8892 5.16211 13.8965L2.82715 13.9258C2.69992 13.9257 2.5938 13.8395 2.56543 13.7178L2.03516 11.417C1.94322 10.9943 2.03505 10.5575 2.30371 10.2207L6.45605 4.8457C6.52678 4.75973 6.65437 4.74585 6.73926 4.80957L8.48633 6.2002C8.59946 6.29331 8.75535 6.34271 8.91797 6.32129C9.26448 6.27831 9.49805 5.96364 9.46289 5.62695C9.44169 5.45517 9.35712 5.31155 9.24414 5.2041C9.20877 5.17544 7.5459 3.8418 7.5459 3.8418C7.43988 3.75578 7.41807 3.59795 7.50293 3.49121L8.16113 2.6377Z" fill="#A9AABE"/>
</svg>
