<svg width="100" height="100" viewBox="0 0 100 100" fill="none" xmlns="http://www.w3.org/2000/svg">
<rect width="100" height="100" rx="8" fill="#F2F2F9"/>
<path d="M54.2 59H44.9314C44.3256 59 44.0226 59 43.8824 58.8802C43.7607 58.7763 43.6961 58.6203 43.7086 58.4608C43.7231 58.2769 43.9373 58.0627 44.3657 57.6343L52.8686 49.1314C53.2646 48.7354 53.4627 48.5373 53.691 48.4632C53.8918 48.3979 54.1082 48.3979 54.309 48.4632C54.5373 48.5373 54.7354 48.7354 55.1314 49.1314L59 53V54.2M54.2 59C55.8802 59 56.7202 59 57.362 58.673C57.9265 58.3854 58.3854 57.9265 58.673 57.362C59 56.7202 59 55.8802 59 54.2M54.2 59H45.8C44.1198 59 43.2798 59 42.638 58.673C42.0735 58.3854 41.6146 57.9265 41.327 57.362C41 56.7202 41 55.8802 41 54.2V45.8C41 44.1198 41 43.2798 41.327 42.638C41.6146 42.0735 42.0735 41.6146 42.638 41.327C43.2798 41 44.1198 41 45.8 41H54.2C55.8802 41 56.7202 41 57.362 41.327C57.9265 41.6146 58.3854 42.0735 58.673 42.638C59 43.2798 59 44.1198 59 45.8V54.2M48.5 46.5C48.5 47.6046 47.6046 48.5 46.5 48.5C45.3954 48.5 44.5 47.6046 44.5 46.5C44.5 45.3954 45.3954 44.5 46.5 44.5C47.6046 44.5 48.5 45.3954 48.5 46.5Z" stroke="#C4C6D3" stroke-width="2" stroke-linecap="round" stroke-linejoin="round"/>
</svg>
