<svg width="16" height="16" viewBox="0 0 16 16" fill="none" xmlns="http://www.w3.org/2000/svg">
<path fill-rule="evenodd" clip-rule="evenodd" d="M10.5664 1.66417C10.987 1.66417 11.407 1.7235 11.8064 1.8575C14.267 2.6575 15.1537 5.3575 14.413 7.7175C13.993 8.9235 13.3064 10.0242 12.407 10.9235C11.1197 12.1702 9.70702 13.2768 8.18635 14.2302L8.01969 14.3308L7.84635 14.2235C6.32035 13.2768 4.89969 12.1702 3.60035 10.9168C2.70702 10.0175 2.01969 8.9235 1.59302 7.7175C0.839686 5.3575 1.72635 2.6575 4.21369 1.8435C4.40702 1.77684 4.60635 1.73017 4.80635 1.70417H4.88635C5.07369 1.67684 5.25969 1.66417 5.44635 1.66417H5.51969C5.93969 1.67684 6.34635 1.75017 6.74035 1.88417H6.77969C6.80635 1.89684 6.82635 1.91084 6.83968 1.9235C6.98702 1.97084 7.12635 2.02417 7.25969 2.0975L7.51302 2.21084C7.57423 2.24348 7.64294 2.29337 7.70233 2.33648C7.73995 2.3638 7.77383 2.3884 7.79969 2.40417C7.81057 2.41059 7.82162 2.41704 7.83277 2.42355C7.88993 2.45692 7.94948 2.49168 7.99968 2.53017C8.74035 1.96417 9.63968 1.6575 10.5664 1.66417ZM12.3397 6.46384C12.613 6.45651 12.8464 6.23717 12.8664 5.95651V5.87717C12.8864 4.94317 12.3204 4.09717 11.4597 3.77051C11.1864 3.67651 10.8864 3.82384 10.7864 4.10384C10.693 4.38384 10.8397 4.69051 11.1197 4.78984C11.547 4.94984 11.833 5.37051 11.833 5.83651V5.85717C11.8204 6.00984 11.8664 6.15718 11.9597 6.27051C12.053 6.38384 12.193 6.44984 12.3397 6.46384Z" fill="#326BFF"/>
</svg>
