<svg width="16" height="16" viewBox="0 0 16 16" fill="none" xmlns="http://www.w3.org/2000/svg">
<path fill-rule="evenodd" clip-rule="evenodd" d="M10.9406 1.84835L10.9412 2.3481C12.7777 2.49203 13.9908 3.7434 13.9927 5.66244L14 11.2796C14.0026 13.3719 12.6882 14.6593 10.5812 14.6626L5.43459 14.6693C3.3408 14.6719 2.00988 13.3539 2.00724 11.2556L2 5.70442C1.99737 3.77272 3.16768 2.52468 5.00411 2.35609L5.00346 1.85635C5.0028 1.56316 5.22001 1.3426 5.50963 1.3426C5.79924 1.34194 6.01645 1.56183 6.01711 1.85501L6.01777 2.32145L9.92759 2.31611L9.92693 1.84968C9.92627 1.5565 10.1435 1.33661 10.4331 1.33594C10.7161 1.33527 10.9399 1.55516 10.9406 1.84835ZM3.01433 5.90789L12.9798 5.89456V5.66135C12.9515 4.22873 12.2327 3.47711 10.9426 3.36516L10.9432 3.87824C10.9432 4.16476 10.7201 4.39198 10.4371 4.39198C10.1474 4.39265 9.92958 4.1661 9.92958 3.87957L9.92892 3.33984L6.0191 3.34517L6.01976 3.88424C6.01976 4.17143 5.80321 4.39798 5.51359 4.39798C5.22397 4.39865 5.0061 4.17276 5.0061 3.88557L5.00545 3.37249C3.72192 3.5011 3.0117 4.25539 3.01368 5.70066L3.01433 5.90789ZM10.16 8.93602V8.94335C10.1666 9.24987 10.4167 9.48242 10.7201 9.47575C11.0163 9.46842 11.2526 9.21455 11.2461 8.90804C11.2322 8.61485 10.9946 8.37564 10.6991 8.3763C10.3963 8.38297 10.1593 8.62951 10.16 8.93602ZM10.7037 11.929C10.4009 11.9223 10.1567 11.6698 10.1561 11.3633C10.1495 11.0568 10.3924 10.8029 10.6951 10.7956H10.7017C11.0111 10.7956 11.2619 11.0481 11.2619 11.3613C11.2625 11.6745 11.0124 11.9283 10.7037 11.929ZM7.44808 8.94741C7.46125 9.25393 7.71203 9.49314 8.01481 9.47981C8.31101 9.46582 8.54731 9.21261 8.53414 8.9061C8.5269 8.60625 8.28336 8.37303 7.98716 8.3737C7.68438 8.38703 7.44742 8.6409 7.44808 8.94741ZM8.01741 11.8991C7.71463 11.9124 7.46451 11.6732 7.45068 11.3667C7.45068 11.0602 7.68698 10.807 7.98976 10.793C8.28596 10.7923 8.53016 11.0255 8.53674 11.3247C8.55057 11.6319 8.31361 11.8851 8.01741 11.8991ZM4.73617 8.97085C4.74933 9.27736 5.00011 9.51724 5.30289 9.50325C5.59909 9.48992 5.83539 9.23605 5.82157 8.92954C5.81499 8.62969 5.57145 8.39647 5.27459 8.39714C4.97181 8.41046 4.73551 8.66434 4.73617 8.97085ZM5.30566 11.903C5.00288 11.917 4.75276 11.6771 4.73893 11.3706C4.73828 11.0641 4.97523 10.8102 5.27801 10.7969C5.57421 10.7962 5.81841 11.0294 5.82499 11.3293C5.83882 11.6358 5.60252 11.8897 5.30566 11.903Z" fill="#A9AABE"/>
</svg>
