<svg width="32" height="32" viewBox="0 0 32 32" fill="none" xmlns="http://www.w3.org/2000/svg">
<path d="M23.457 13.8594C23.6182 13.8516 23.7787 13.8877 23.9209 13.9639C24.063 14.0401 24.1819 14.1536 24.2646 14.292C24.3473 14.4304 24.3909 14.5888 24.3906 14.75V22.25C24.3906 22.4862 24.2969 22.7129 24.1299 22.8799C23.9629 23.0469 23.7362 23.1406 23.5 23.1406C23.2638 23.1406 23.0371 23.0469 22.8701 22.8799C22.7031 22.7129 22.6094 22.4862 22.6094 22.25V16.4141L22.5361 16.4629L22.1191 16.7422C22.0217 16.807 21.9126 16.8523 21.7979 16.875C21.683 16.8977 21.564 16.897 21.4492 16.874C21.3348 16.851 21.2259 16.8061 21.1289 16.7412C21.0316 16.676 20.9477 16.5916 20.8828 16.4941C20.818 16.3967 20.7727 16.2876 20.75 16.1729C20.7273 16.058 20.728 15.939 20.751 15.8242C20.774 15.7098 20.8189 15.6009 20.8838 15.5039C20.949 15.4066 21.0334 15.3227 21.1309 15.2578L23.0059 14.0078C23.14 13.9183 23.2959 13.8672 23.457 13.8594ZM17.25 9.48438C17.4862 9.48438 17.7129 9.57809 17.8799 9.74512C18.0469 9.91214 18.1406 10.1388 18.1406 10.375V19.75C18.1406 19.9862 18.0469 20.2129 17.8799 20.3799C17.7129 20.5469 17.4862 20.6406 17.25 20.6406C17.0138 20.6406 16.7871 20.5469 16.6201 20.3799C16.4531 20.2129 16.3594 19.9862 16.3594 19.75V15.9531H10.0156V19.75C10.0156 19.9862 9.92191 20.2129 9.75488 20.3799C9.58786 20.5469 9.36121 20.6406 9.125 20.6406C8.88879 20.6406 8.66214 20.5469 8.49512 20.3799C8.32809 20.2129 8.23438 19.9862 8.23438 19.75V10.375C8.23438 10.1388 8.32809 9.91214 8.49512 9.74512C8.66214 9.57809 8.88879 9.48438 9.125 9.48438C9.36121 9.48438 9.58786 9.57809 9.75488 9.74512C9.92191 9.91214 10.0156 10.1388 10.0156 10.375V14.1719H16.3594V10.375C16.3594 10.1388 16.4531 9.91214 16.6201 9.74512C16.7871 9.57809 17.0138 9.48438 17.25 9.48438Z" fill="#464859"/>
<path d="M23.457 13.8594C23.6182 13.8516 23.7787 13.8877 23.9209 13.9639C24.063 14.0401 24.1819 14.1536 24.2646 14.292C24.3473 14.4304 24.3909 14.5888 24.3906 14.75V22.25C24.3906 22.4862 24.2969 22.7129 24.1299 22.8799C23.9629 23.0469 23.7362 23.1406 23.5 23.1406C23.2638 23.1406 23.0371 23.0469 22.8701 22.8799C22.7031 22.7129 22.6094 22.4862 22.6094 22.25V16.4141L22.5361 16.4629L22.1191 16.7422C22.0217 16.807 21.9126 16.8523 21.7979 16.875C21.683 16.8977 21.564 16.897 21.4492 16.874C21.3348 16.851 21.2259 16.8061 21.1289 16.7412C21.0316 16.676 20.9477 16.5916 20.8828 16.4941C20.818 16.3967 20.7727 16.2876 20.75 16.1729C20.7273 16.058 20.728 15.939 20.751 15.8242C20.774 15.7098 20.8189 15.6009 20.8838 15.5039C20.949 15.4066 21.0334 15.3227 21.1309 15.2578L23.0059 14.0078C23.14 13.9183 23.2959 13.8672 23.457 13.8594ZM17.25 9.48438C17.4862 9.48438 17.7129 9.57809 17.8799 9.74512C18.0469 9.91214 18.1406 10.1388 18.1406 10.375V19.75C18.1406 19.9862 18.0469 20.2129 17.8799 20.3799C17.7129 20.5469 17.4862 20.6406 17.25 20.6406C17.0138 20.6406 16.7871 20.5469 16.6201 20.3799C16.4531 20.2129 16.3594 19.9862 16.3594 19.75V15.9531H10.0156V19.75C10.0156 19.9862 9.92191 20.2129 9.75488 20.3799C9.58786 20.5469 9.36121 20.6406 9.125 20.6406C8.88879 20.6406 8.66214 20.5469 8.49512 20.3799C8.32809 20.2129 8.23438 19.9862 8.23438 19.75V10.375C8.23438 10.1388 8.32809 9.91214 8.49512 9.74512C8.66214 9.57809 8.88879 9.48438 9.125 9.48438C9.36121 9.48438 9.58786 9.57809 9.75488 9.74512C9.92191 9.91214 10.0156 10.1388 10.0156 10.375V14.1719H16.3594V10.375C16.3594 10.1388 16.4531 9.91214 16.6201 9.74512C16.7871 9.57809 17.0138 9.48438 17.25 9.48438Z" fill="black" fill-opacity="0.2"/>
<path d="M23.457 13.8594C23.6182 13.8516 23.7787 13.8877 23.9209 13.9639C24.063 14.0401 24.1819 14.1536 24.2646 14.292C24.3473 14.4304 24.3909 14.5888 24.3906 14.75V22.25C24.3906 22.4862 24.2969 22.7129 24.1299 22.8799C23.9629 23.0469 23.7362 23.1406 23.5 23.1406C23.2638 23.1406 23.0371 23.0469 22.8701 22.8799C22.7031 22.7129 22.6094 22.4862 22.6094 22.25V16.4141L22.5361 16.4629L22.1191 16.7422C22.0217 16.807 21.9126 16.8523 21.7979 16.875C21.683 16.8977 21.564 16.897 21.4492 16.874C21.3348 16.851 21.2259 16.8061 21.1289 16.7412C21.0316 16.676 20.9477 16.5916 20.8828 16.4941C20.818 16.3967 20.7727 16.2876 20.75 16.1729C20.7273 16.058 20.728 15.939 20.751 15.8242C20.774 15.7098 20.8189 15.6009 20.8838 15.5039C20.949 15.4066 21.0334 15.3227 21.1309 15.2578L23.0059 14.0078C23.14 13.9183 23.2959 13.8672 23.457 13.8594ZM17.25 9.48438C17.4862 9.48438 17.7129 9.57809 17.8799 9.74512C18.0469 9.91214 18.1406 10.1388 18.1406 10.375V19.75C18.1406 19.9862 18.0469 20.2129 17.8799 20.3799C17.7129 20.5469 17.4862 20.6406 17.25 20.6406C17.0138 20.6406 16.7871 20.5469 16.6201 20.3799C16.4531 20.2129 16.3594 19.9862 16.3594 19.75V15.9531H10.0156V19.75C10.0156 19.9862 9.92191 20.2129 9.75488 20.3799C9.58786 20.5469 9.36121 20.6406 9.125 20.6406C8.88879 20.6406 8.66214 20.5469 8.49512 20.3799C8.32809 20.2129 8.23438 19.9862 8.23438 19.75V10.375C8.23438 10.1388 8.32809 9.91214 8.49512 9.74512C8.66214 9.57809 8.88879 9.48438 9.125 9.48438C9.36121 9.48438 9.58786 9.57809 9.75488 9.74512C9.92191 9.91214 10.0156 10.1388 10.0156 10.375V14.1719H16.3594V10.375C16.3594 10.1388 16.4531 9.91214 16.6201 9.74512C16.7871 9.57809 17.0138 9.48438 17.25 9.48438Z" stroke="#464859" stroke-width="0.09375"/>
<path d="M23.457 13.8594C23.6182 13.8516 23.7787 13.8877 23.9209 13.9639C24.063 14.0401 24.1819 14.1536 24.2646 14.292C24.3473 14.4304 24.3909 14.5888 24.3906 14.75V22.25C24.3906 22.4862 24.2969 22.7129 24.1299 22.8799C23.9629 23.0469 23.7362 23.1406 23.5 23.1406C23.2638 23.1406 23.0371 23.0469 22.8701 22.8799C22.7031 22.7129 22.6094 22.4862 22.6094 22.25V16.4141L22.5361 16.4629L22.1191 16.7422C22.0217 16.807 21.9126 16.8523 21.7979 16.875C21.683 16.8977 21.564 16.897 21.4492 16.874C21.3348 16.851 21.2259 16.8061 21.1289 16.7412C21.0316 16.676 20.9477 16.5916 20.8828 16.4941C20.818 16.3967 20.7727 16.2876 20.75 16.1729C20.7273 16.058 20.728 15.939 20.751 15.8242C20.774 15.7098 20.8189 15.6009 20.8838 15.5039C20.949 15.4066 21.0334 15.3227 21.1309 15.2578L23.0059 14.0078C23.14 13.9183 23.2959 13.8672 23.457 13.8594ZM17.25 9.48438C17.4862 9.48438 17.7129 9.57809 17.8799 9.74512C18.0469 9.91214 18.1406 10.1388 18.1406 10.375V19.75C18.1406 19.9862 18.0469 20.2129 17.8799 20.3799C17.7129 20.5469 17.4862 20.6406 17.25 20.6406C17.0138 20.6406 16.7871 20.5469 16.6201 20.3799C16.4531 20.2129 16.3594 19.9862 16.3594 19.75V15.9531H10.0156V19.75C10.0156 19.9862 9.92191 20.2129 9.75488 20.3799C9.58786 20.5469 9.36121 20.6406 9.125 20.6406C8.88879 20.6406 8.66214 20.5469 8.49512 20.3799C8.32809 20.2129 8.23438 19.9862 8.23438 19.75V10.375C8.23438 10.1388 8.32809 9.91214 8.49512 9.74512C8.66214 9.57809 8.88879 9.48438 9.125 9.48438C9.36121 9.48438 9.58786 9.57809 9.75488 9.74512C9.92191 9.91214 10.0156 10.1388 10.0156 10.375V14.1719H16.3594V10.375C16.3594 10.1388 16.4531 9.91214 16.6201 9.74512C16.7871 9.57809 17.0138 9.48438 17.25 9.48438Z" stroke="black" stroke-opacity="0.2" stroke-width="0.09375"/>
</svg>
